<?xml version="1.0" standalone="no"?>
<!DOCTYPE svg PUBLIC "-//W3C//DTD SVG 20010904//EN"
 "http://www.w3.org/TR/2001/REC-SVG-20010904/DTD/svg10.dtd">
<svg version="1.0" xmlns="http://www.w3.org/2000/svg"
 width="256.000000pt" height="256.000000pt" viewBox="0 0 256.000000 256.000000"
 preserveAspectRatio="xMidYMid meet">
<metadata>
Created by potrace 1.14, written by Peter Selinger 2001-2017
</metadata>
<g transform="translate(0.000000,256.000000) scale(0.100000,-0.100000)"
fill="#000000" stroke="none">
<path d="M7 2553 c-8 -7 -10 -1233 -2 -1233 3 0 31 11 63 24 31 13 109 41 172
62 63 20 120 41 126 46 8 6 13 -8 16 -48 4 -49 10 -62 37 -86 17 -15 40 -28
50 -28 10 0 78 18 150 41 l130 40 23 -21 c12 -11 28 -18 34 -16 10 4 34 -41
34 -64 0 -3 -20 -20 -44 -37 -37 -26 -94 -103 -109 -147 -1 -5 -112 -32 -245
-61 -133 -28 -245 -55 -249 -58 -3 -4 6 -78 20 -164 25 -152 27 -159 59 -187
18 -16 97 -89 175 -163 l142 -134 -2 -102 c-1 -56 2 -128 6 -160 7 -48 12 -57
29 -57 15 0 18 4 13 17 -5 10 -10 77 -13 149 -4 128 5 205 31 268 13 29 13 28
35 -55 31 -113 169 -395 186 -379 3 3 -14 39 -37 80 -23 41 -58 109 -77 150
-38 83 -82 241 -71 252 4 4 31 16 61 26 30 10 55 23 57 28 1 5 -15 22 -37 37
-22 16 -40 32 -40 36 0 21 76 105 106 117 46 19 47 18 40 -18 -33 -162 -44
-363 -26 -504 10 -77 36 -193 45 -203 13 -13 11 11 -7 79 -22 83 -36 388 -21
468 l8 44 61 -94 61 -93 6 -124 c8 -138 24 -251 39 -266 6 -7 9 -1 6 15 -3 23
0 24 36 21 33 -2 38 0 32 14 -21 56 -57 265 -46 265 4 0 13 -7 20 -15 20 -24
38 -17 59 23 l19 37 12 -30 c7 -16 18 -48 26 -70 22 -61 86 -195 94 -195 8 0
60 78 60 91 0 5 -12 28 -27 52 -34 53 -113 222 -113 241 0 7 17 53 39 102 21
49 41 98 45 108 4 10 8 17 10 15 2 -2 11 -46 20 -97 9 -51 37 -155 62 -230 45
-137 148 -352 171 -360 7 -2 0 18 -14 44 -24 43 -28 61 -31 164 -6 150 22 337
75 514 5 18 0 19 -103 12 l-109 -7 70 51 c39 28 76 55 84 59 11 7 9 20 -13 74
-14 36 -26 73 -26 81 0 17 451 476 467 476 10 0 93 -189 93 -211 0 -6 -9 -23
-20 -37 -44 -57 -192 -288 -246 -385 -110 -196 -116 -207 -99 -207 14 0 97
-159 225 -430 70 -149 103 -200 127 -200 20 0 7 31 -143 330 l-166 329 50 95
c28 53 101 172 163 266 87 131 117 169 130 165 12 -4 31 11 63 47 25 29 46 58
46 65 0 19 13 16 85 -19 l65 -32 27 27 c54 53 26 151 -48 171 -19 5 -35 10
-37 11 -5 4 21 55 28 55 4 0 47 -13 96 -29 49 -15 104 -32 122 -35 l32 -8 -2
559 -3 558 -1271 3 c-699 1 -1274 -1 -1277 -5z m982 -256 c-2 -1 -13 -9 -24
-17 -19 -14 -19 -14 -6 3 7 9 18 17 24 17 6 0 8 -1 6 -3z m93 -82 c41 -123
110 -397 102 -405 -11 -10 -287 -149 -366 -184 -53 -23 -59 -23 -67 -8 -38 73
-161 345 -161 356 0 21 36 38 63 30 12 -4 38 -17 57 -30 47 -31 85 -39 118
-25 37 15 50 38 67 121 18 86 44 139 86 174 49 42 80 33 101 -29z m-194 -20
c-6 -14 -13 -23 -15 -21 -5 5 15 46 22 46 3 0 -1 -11 -7 -25z m259 -47 c-3 -8
-6 -5 -6 6 -1 11 2 17 5 13 3 -3 4 -12 1 -19z m-290 -30 c-3 -8 -6 -5 -6 6 -1
11 2 17 5 13 3 -3 4 -12 1 -19z m-10 -60 c-3 -7 -5 -2 -5 12 0 14 2 19 5 13 2
-7 2 -19 0 -25z m-238 -11 c-2 -1 -13 -9 -24 -17 -19 -14 -19 -14 -6 3 7 9 18
17 24 17 6 0 8 -1 6 -3z m76 -7 c3 -6 -1 -7 -9 -4 -18 7 -21 14 -7 14 6 0 13
-4 16 -10z m492 -12 c-3 -8 -6 -5 -6 6 -1 11 2 17 5 13 3 -3 4 -12 1 -19z
m-437 -24 c0 -2 -9 0 -20 6 -11 6 -20 13 -20 16 0 2 9 0 20 -6 11 -6 20 -13
20 -16z m85 -4 c-3 -5 -12 -10 -18 -10 -7 0 -6 4 3 10 19 12 23 12 15 0z m-48
-6 c-3 -3 -12 -4 -19 -1 -8 3 -5 6 6 6 11 1 17 -2 13 -5z m791 -31 c-10 -2
-26 -2 -35 0 -10 3 -2 5 17 5 19 0 27 -2 18 -5z m83 -55 c15 -28 5 -21 -21 15
-15 20 -17 27 -6 18 9 -8 22 -23 27 -33z m-201 18 c0 -3 -15 -14 -32 -26 l-33
-22 28 26 c27 25 37 31 37 22z m147 -22 c22 -22 25 -31 19 -71 -12 -89 -19
-94 -240 -177 -332 -124 -390 -147 -423 -167 -20 -13 -34 -16 -38 -9 -3 5 -2
10 3 10 5 0 75 48 156 108 434 318 454 332 484 332 7 0 25 -12 39 -26z m-1009
-39 c-3 -3 -9 2 -12 12 -6 14 -5 15 5 6 7 -7 10 -15 7 -18z m792 12 c0 -2 -19
-18 -42 -36 l-43 -32 39 35 c37 34 46 40 46 33z m287 -59 c-2 -13 -4 -5 -4 17
-1 22 1 32 4 23 2 -10 2 -28 0 -40z m578 33 c-22 -10 -69 -49 -104 -87 -36
-38 -57 -58 -48 -45 46 69 143 151 177 151 8 0 -3 -9 -25 -19z m92 13 c-3 -3
-12 -4 -19 -1 -8 3 -5 6 6 6 11 1 17 -2 13 -5z m71 -59 c-3 -3 -9 2 -12 12 -6
14 -5 15 5 6 7 -7 10 -15 7 -18z m-108 9 c0 -3 -21 -32 -46 -64 -43 -55 -45
-59 -30 -82 8 -12 24 -47 35 -76 l21 -53 -31 -60 c-17 -34 -28 -64 -24 -67 3
-3 25 -5 49 -3 35 2 48 -2 65 -20 22 -24 25 -39 15 -76 -8 -29 -21 -29 -75 1
-24 13 -63 27 -86 31 -39 6 -45 12 -93 87 -59 90 -59 78 7 210 39 80 83 132
132 158 36 19 61 25 61 14z m40 -12 c0 -5 -20 -39 -44 -77 -39 -60 -45 -66
-54 -49 -8 15 -2 30 31 76 38 51 67 73 67 50z m-1086 -17 c3 -8 1 -15 -4 -15
-6 0 -10 7 -10 15 0 8 2 15 4 15 2 0 6 -7 10 -15z m-43 -28 c8 -30 0 -37 -171
-164 -119 -88 -125 -91 -185 -94 -45 -3 -51 -1 -61 21 -31 66 -41 57 184 167
114 55 211 100 216 99 6 -1 13 -14 17 -29z m1118 -103 l-32 -74 -17 28 c-16
26 -16 28 29 97 39 60 46 67 49 47 2 -13 -11 -57 -29 -98z m-709 51 c-13 -14
-27 -25 -32 -25 -9 0 42 49 51 50 3 0 -6 -11 -19 -25z m-930 -50 c0 -5 -5 -3
-10 5 -5 8 -10 20 -10 25 0 6 5 3 10 -5 5 -8 10 -19 10 -25z m1380 6 c0 -19
-72 -112 -122 -158 -29 -26 -111 -104 -182 -173 -169 -163 -174 -168 -222
-212 l-41 -38 -30 85 -30 86 22 17 c46 37 58 98 29 153 -20 39 -73 63 -109 49
-15 -6 -28 -10 -29 -10 -2 0 -11 28 -21 62 -16 59 -16 62 1 75 20 14 38 18 30
5 -2 -4 28 -7 67 -6 94 2 347 -13 466 -27 l93 -12 24 29 c12 16 28 41 35 57
12 27 19 34 19 18z m281 -75 c-17 -36 -32 -66 -35 -66 -3 0 9 32 26 70 17 39
33 69 35 67 2 -2 -10 -34 -26 -71z m-881 54 c-8 -5 -19 -10 -25 -10 -5 0 -3 5
5 10 8 5 20 10 25 10 6 0 3 -5 -5 -10z m-50 -20 c-8 -5 -22 -9 -30 -9 -10 0
-8 3 5 9 27 12 43 12 25 0z m-121 -108 c17 -48 31 -90 31 -94 0 -15 -34 -17
-60 -3 -35 18 -45 36 -54 90 -6 33 -3 46 14 68 12 15 25 27 29 27 5 0 22 -39
40 -88z m-104 4 c0 -47 4 -59 29 -85 17 -17 36 -31 43 -31 41 0 -28 -55 -80
-63 -20 -3 -51 -15 -67 -27 -17 -12 -30 -19 -30 -16 0 7 -113 -33 -124 -44
-14 -14 4 -13 54 5 23 8 46 15 51 15 20 0 7 -40 -22 -64 -40 -34 -113 -36
-153 -5 -14 11 -24 24 -21 28 2 5 45 23 95 41 50 18 93 37 96 41 8 13 -8 11
-56 -6 -23 -8 -44 -15 -45 -15 -1 0 12 15 29 34 19 20 35 30 40 25 12 -10 47
-12 71 -3 15 6 45 54 45 73 0 5 -11 22 -24 38 -24 29 -24 29 -4 42 11 7 17 19
14 26 -4 12 33 43 54 45 3 0 5 -24 5 -54z m-440 4 c10 -16 -17 -21 -91 -18
l-69 3 55 11 c73 15 98 16 105 4z m1331 -97 c31 -53 59 -104 61 -112 2 -9 -9
-31 -24 -49 l-28 -34 -52 126 c-29 68 -53 129 -53 133 0 11 21 33 31 33 4 0
33 -44 65 -97z m-1588 80 c-10 -2 -28 -2 -40 0 -13 2 -5 4 17 4 22 1 32 -1 23
-4z m343 -47 c-26 -27 -310 -126 -361 -126 -50 0 -96 92 -57 117 10 7 259 26
401 32 l39 1 -22 -24z m134 -2 c9 -14 16 -14 33 -5 26 14 26 12 8 -24 -8 -15
-17 -22 -21 -16 -10 18 -50 13 -79 -10 -37 -29 -36 -73 3 -97 l30 -18 -29 -11
c-35 -13 -42 -6 -61 55 -11 39 -10 45 8 70 18 24 78 72 91 72 3 0 10 -7 17
-16z m145 -25 c18 -33 -12 -71 -53 -67 -27 2 -33 8 -35 31 -2 16 2 35 9 43 18
22 66 18 79 -7z m321 2 c33 -27 33 -92 0 -123 -22 -21 -23 -22 -17 -3 17 47
19 76 5 73 -8 -2 -15 7 -17 21 -3 17 -6 20 -12 11 -5 -8 -15 -10 -26 -6 -18 7
-17 9 5 27 29 24 33 24 62 0z m-449 -55 c22 -32 -36 -81 -69 -60 -26 16 -27
36 -3 62 22 23 56 22 72 -2z m378 -15 c0 -5 -22 -27 -50 -48 -30 -23 -48 -44
-46 -53 38 -132 37 -117 5 -171 -16 -28 -29 -53 -29 -58 0 -4 13 -8 30 -8 57
0 88 -54 56 -99 -14 -19 -15 -18 -43 8 -15 14 -45 34 -66 45 -33 15 -43 28
-69 90 l-29 71 30 61 c35 69 82 126 126 153 32 19 85 25 85 9z m24 -58 c-4
-16 -21 -52 -37 -82 -30 -54 -31 -54 -40 -28 -7 23 -2 34 35 82 23 30 44 55
46 55 1 0 -1 -12 -4 -27z m-238 -50 c-24 -38 -54 -73 -67 -80 -30 -15 -300
-75 -307 -69 -3 3 10 19 29 37 30 28 37 30 78 24 122 -16 171 0 202 67 21 45
68 87 96 88 7 0 -7 -30 -31 -67z m176 23 c-21 -24 -33 -32 -38 -24 -7 11 55
72 64 63 3 -2 -9 -20 -26 -39z m100 -131 c19 -49 38 -97 42 -105 5 -12 -6 -22
-41 -39 -28 -14 -49 -19 -51 -12 -8 25 -45 61 -63 61 -10 0 -19 2 -19 6 0 6
94 183 96 181 1 -1 17 -42 36 -92z m-569 62 c3 -9 -8 -18 -29 -26 -22 -8 -44
-27 -59 -52 -22 -34 -45 -51 -45 -32 0 11 52 77 79 100 30 26 47 29 54 10z
m291 -157 c20 -47 36 -89 36 -93 0 -3 -14 -13 -30 -22 -34 -18 -25 -31 -77
105 -39 102 -38 98 -6 102 15 2 31 1 34 -2 4 -3 23 -43 43 -90z m-81 -17 c34
-93 35 -99 18 -113 -9 -8 -132 -46 -272 -83 -350 -94 -359 -97 -359 -109 0 -6
12 -8 33 -3 58 12 277 18 277 7 0 -5 -16 -34 -36 -63 -54 -80 -90 -156 -115
-242 l-22 -77 -141 133 c-78 73 -153 144 -168 157 -24 22 -30 41 -51 163 -17
97 -21 140 -13 142 6 2 97 22 201 44 219 47 372 82 500 115 50 13 95 24 101
25 7 0 28 -43 47 -96z m428 -103 c11 -30 21 -59 22 -64 1 -6 -36 -39 -83 -74
-47 -36 -86 -67 -88 -71 -1 -3 50 -4 113 -3 63 2 115 2 115 -1 0 -2 -6 -22
-14 -43 -30 -86 -59 -280 -60 -401 0 -68 -2 -123 -3 -123 -9 0 -56 112 -87
206 -49 147 -75 276 -83 407 -6 99 -4 109 14 130 12 12 24 32 27 44 7 21 68
54 94 50 8 -1 22 -27 33 -57z m-261 0 c0 -5 -4 -10 -10 -10 -5 0 -10 5 -10 10
0 6 5 10 10 10 6 0 10 -4 10 -10z m58 -32 c7 -7 12 -44 12 -94 0 -89 -5 -114
-24 -114 -13 0 -96 81 -96 93 0 4 11 7 24 7 33 0 38 11 27 62 -7 31 -7 45 2
50 18 11 41 10 55 -4z m-228 -43 c0 -19 2 -19 45 2 44 21 55 11 24 -24 -19
-21 -20 -25 -6 -20 11 4 16 3 12 -3 -3 -6 -19 -10 -34 -10 -26 0 -28 -2 -26
-37 5 -71 17 -138 47 -256 l30 -117 -22 -35 c-12 -19 -25 -35 -29 -35 -4 0
-18 12 -32 26 -24 25 -24 29 -25 215 -1 213 -6 230 -52 186 -15 -15 -32 -27
-36 -27 -5 0 3 9 18 21 31 25 35 45 5 29 -11 -7 -28 -9 -37 -5 -15 6 -14 9 7
26 13 10 31 19 40 19 10 -1 6 -6 -12 -16 -16 -9 -26 -18 -23 -21 3 -3 17 2 30
11 35 22 24 46 -23 46 -24 1 -31 3 -21 9 21 11 77 24 68 16 -8 -8 26 -80 43
-90 18 -12 19 0 5 53 -7 29 -9 52 -5 52 5 0 9 -7 9 -15z m-206 -61 c10 -26 7
-34 -16 -43 -18 -7 -28 -4 -45 12 -28 25 -29 34 -5 40 36 10 60 6 66 -9z
m-131 -21 c-7 -2 -19 -2 -25 0 -7 3 -2 5 12 5 14 0 19 -2 13 -5z m492 -61 l57
-53 -25 -57 c-14 -31 -31 -70 -37 -87 l-12 -30 -18 35 c-24 48 -80 207 -80
230 0 19 26 31 46 21 6 -3 37 -30 69 -59z m-200 -19 c-15 -90 -25 -177 -25
-215 l0 -43 -24 30 c-50 61 -51 67 -22 142 31 77 52 113 66 113 5 0 7 -12 5
-27z m-110 -14 c11 -19 22 -29 31 -25 12 5 12 1 0 -29 -30 -70 -32 -72 -50
-36 -13 23 -15 44 -10 77 3 24 8 44 10 44 2 0 11 -14 19 -31z m-135 -139 c0
-3 -22 -13 -50 -22 -27 -9 -50 -14 -50 -12 0 3 9 23 20 45 l21 39 29 -22 c17
-12 30 -25 30 -28z"/>
<path d="M1090 1430 c0 -5 5 -10 11 -10 5 0 7 5 4 10 -3 6 -8 10 -11 10 -2 0
-4 -4 -4 -10z"/>
<path d="M1253 1211 c7 -33 -20 -75 -53 -86 -11 -4 -20 -11 -20 -16 0 -17 19
-9 55 22 29 26 35 38 35 70 0 22 -5 39 -11 39 -7 0 -9 -11 -6 -29z"/>
<path d="M1109 841 c-13 -11 -19 -20 -14 -20 14 0 50 28 43 34 -3 3 -16 -3
-29 -14z"/>
<path d="M1169 104 c-11 -14 -10 -18 5 -30 24 -17 56 -2 56 26 0 25 -41 27
-61 4z m46 -4 c3 -6 -1 -13 -10 -16 -19 -8 -30 0 -20 15 8 14 22 14 30 1z"/>
</g>
</svg>
